<svg width="25" height="30" viewBox="0 0 25 30" fill="none" xmlns="http://www.w3.org/2000/svg">
<path d="M19.3024 8.16291C19.6075 7.7968 19.6075 7.2032 19.3024 6.83709C18.9973 6.47097 18.5027 6.47097 18.1976 6.83709L7.8125 19.2992L2.89618 13.3996C2.59108 13.0335 2.09642 13.0335 1.79132 13.3996C1.48623 13.7657 1.48623 14.3593 1.79132 14.7254L7.26007 21.2879C7.40659 21.4637 7.6053 21.5625 7.8125 21.5625C8.0197 21.5625 8.21841 21.4637 8.36493 21.2879L19.3024 8.16291Z" fill="#9F1010"/>
<path d="M12.7288 21.2879L11.3281 19.6071L12.433 18.2812L13.2812 19.2992L23.6663 6.83709C23.9714 6.47097 24.4661 6.47097 24.7712 6.83709C25.0763 7.2032 25.0763 7.7968 24.7712 8.16291L13.8337 21.2879C13.6872 21.4637 13.4885 21.5625 13.2812 21.5625C13.0741 21.5625 12.8753 21.4637 12.7288 21.2879Z" fill="#9F1010"/>
<path d="M8.36493 13.3996L9.76562 15.0804L8.66077 16.4062L7.26007 14.7254C6.95498 14.3593 6.95498 13.7657 7.26007 13.3996C7.56517 13.0335 8.05983 13.0335 8.36493 13.3996Z" fill="#9F1010"/>
</svg>
