<svg width="32" height="30" viewBox="0 0 32 30" fill="none" xmlns="http://www.w3.org/2000/svg">
<g filter="url(#filter0_f_1287_5539)">
<path d="M22.3024 8.16291C22.6075 7.7968 22.6075 7.2032 22.3024 6.83709C21.9973 6.47097 21.5027 6.47097 21.1976 6.83709L10.8125 19.2992L5.89618 13.3996C5.59108 13.0335 5.09642 13.0335 4.79132 13.3996C4.48623 13.7657 4.48623 14.3593 4.79132 14.7254L10.2601 21.2879C10.4066 21.4637 10.6053 21.5625 10.8125 21.5625C11.0197 21.5625 11.2184 21.4637 11.3649 21.2879L22.3024 8.16291Z" fill="#0B1D60"/>
<path d="M15.7288 21.2879L14.3281 19.6071L15.433 18.2812L16.2812 19.2992L26.6663 6.83709C26.9714 6.47097 27.4661 6.47097 27.7712 6.83709C28.0763 7.2032 28.0763 7.7968 27.7712 8.16291L16.8337 21.2879C16.6872 21.4637 16.4885 21.5625 16.2812 21.5625C16.0741 21.5625 15.8753 21.4637 15.7288 21.2879Z" fill="#0B1D60"/>
<path d="M11.3649 13.3996L12.7656 15.0804L11.6608 16.4062L10.2601 14.7254C9.95498 14.3593 9.95498 13.7657 10.2601 13.3996C10.5652 13.0335 11.0598 13.0335 11.3649 13.3996Z" fill="#0B1D60"/>
</g>
<defs>
<filter id="filter0_f_1287_5539" x="-1" y="-4" width="33" height="38" filterUnits="userSpaceOnUse" color-interpolation-filters="sRGB">
<feFlood flood-opacity="0" result="BackgroundImageFix"/>
<feBlend mode="normal" in="SourceGraphic" in2="BackgroundImageFix" result="shape"/>
<feGaussianBlur stdDeviation="2" result="effect1_foregroundBlur_1287_5539"/>
</filter>
</defs>
</svg>
